<?xml version="1.0" encoding="UTF-8" standalone="no"?>
<!-- Created with Inkscape (http://www.inkscape.org/) -->

<svg
   width="1080"
   height="250.11432"
   viewBox="0 0 1080 250.11432"
   version="1.1"
   id="svg5"
   xml:space="preserve"
   xmlns="http://www.w3.org/2000/svg"
   xmlns:svg="http://www.w3.org/2000/svg"
   xmlns:rdf="http://www.w3.org/1999/02/22-rdf-syntax-ns#"
   xmlns:cc="http://creativecommons.org/ns#"
   xmlns:dc="http://purl.org/dc/elements/1.1/"><title
     id="title434">ReeciclaE</title><defs
     id="defs2" /><g
     id="layer1"
     transform="translate(0,-414.94284)"><path
       id="path1669"
       style="color:#000000;fill:#2c9f7d;fill-opacity:1;stroke-width:1.28961;stroke-linecap:round;stroke-miterlimit:5.6;-inkscape-stroke:none"
       d="M 88.189453 443.27878 C 56.747276 443.27878 31.119141 468.90691 31.119141 500.34909 C 31.119141 501.40264 31.152182 502.44801 31.208984 503.48776 A 6.5076433 6.5076433 0 0 0 31.119141 503.94284 L 31.119141 630.21237 A 6.5076433 6.5076433 0 0 0 37.625 636.72018 A 6.5076433 6.5076433 0 0 0 44.132812 630.21237 L 44.132812 536.56393 C 52.204514 546.36237 63.47453 553.43094 76.318359 556.1655 L 133.5 634.06003 A 6.5076699 6.5076699 0 0 0 142.59375 635.45261 A 6.5076699 6.5076699 0 0 0 143.98828 626.35886 L 93.207031 557.18503 C 122.31109 554.62975 145.25977 530.09944 145.25977 500.34909 C 145.25977 468.90691 119.63162 443.27878 88.189453 443.27878 z M 952.07617 443.27878 C 908.99969 443.30538 869.96946 472.29347 858.63477 515.40573 C 845.68094 564.67687 873.29587 615.67953 921.63672 631.7612 C 961.2688 644.94576 1003.7858 631.02126 1028.3809 599.52292 L 1032.7461 614.12448 A 6.3934806 6.3934806 0 0 0 1040.7012 618.4194 A 6.3934806 6.3934806 0 0 0 1044.9961 610.46432 L 1036.1465 580.85104 A 6.3941199 6.3941199 0 0 0 1027.5508 576.78464 L 997.94531 589.17917 A 6.3934806 6.3934806 0 0 0 994.51758 597.54636 A 6.3934806 6.3934806 0 0 0 1002.8848 600.97409 L 1014.6387 596.05417 C 992.92553 620.2577 958.25088 630.46594 925.67383 619.62839 C 883.61519 605.63664 859.7296 561.52573 871 518.65768 C 882.27048 475.78967 924.76401 449.1313 968.26562 457.63425 C 1009.1049 465.61679 1037.3648 501.99439 1035.9688 542.77487 L 959.57812 542.77487 A 6.3934806 6.3934806 0 0 0 953.18555 549.16745 A 6.3934806 6.3934806 0 0 0 959.57812 555.56003 L 1047.7871 555.56393 L 1048.375 549.82175 C 1053.4527 500.28719 1019.8548 454.68968 970.71875 445.08542 C 964.46884 443.8638 958.22996 443.27499 952.07617 443.27878 z M 88.189453 456.2944 C 112.59766 456.2944 132.24609 475.94086 132.24609 500.34909 C 132.24609 524.7573 112.59766 544.40573 88.189453 544.40573 C 63.781248 544.40573 44.132812 524.7573 44.132812 500.34909 C 44.132812 475.94086 63.781248 456.2944 88.189453 456.2944 z M 714.37891 505.81003 A 3.8688381 3.8688381 0 0 0 710.51172 509.67917 L 710.51172 632.853 A 3.8688381 3.8688381 0 0 0 714.37891 636.72018 A 3.8688381 3.8688381 0 0 0 718.24805 632.853 L 718.24805 509.67917 A 3.8688381 3.8688381 0 0 0 714.37891 505.81003 z M 831.32422 531.58932 A 4.3324919 3.4548043 0 0 0 826.99219 535.0444 L 826.99219 546.55612 C 818.89729 538.61563 808.1846 533.24702 796.125 531.90964 C 794.4131 531.71979 792.70886 531.61563 791.01953 531.59323 C 789.3302 531.57083 787.65485 531.63061 785.99609 531.76901 C 762.77354 533.70661 743.01874 551.08035 738.83203 574.82761 C 734.04721 601.9673 751.21645 628.23896 777.99414 634.75143 C 796.15654 639.16866 814.46244 633.38748 826.99219 621.05807 L 826.99219 633.2612 A 4.3324919 3.4548043 0 0 0 831.32422 636.71432 A 4.3324919 3.4548043 0 0 0 835.65625 633.2612 L 835.65625 535.0444 A 4.3324919 3.4548043 0 0 0 831.32422 531.58932 z M 217.32422 532.06589 C 194.02101 532.08129 172.89886 547.7685 166.76758 571.08932 C 159.76038 597.74181 174.70439 625.33937 200.85352 634.03854 C 222.50864 641.2428 245.7713 633.49867 259.01367 616.08542 A 3.8688381 3.8688381 0 0 0 258.27539 610.66354 A 3.8688381 3.8688381 0 0 0 252.85547 611.40182 C 241.58354 626.224 221.80385 632.8536 203.29688 626.69675 C 180.94924 619.26219 168.26345 595.83392 174.25195 573.05612 C 180.24052 550.27833 202.80937 536.12018 225.92383 540.63815 C 247.47377 544.8504 262.27105 563.95841 261.75 585.44284 L 221.34766 585.44284 A 3.8688381 3.8688381 0 0 0 217.47852 589.31198 A 3.8688381 3.8688381 0 0 0 221.34766 593.18112 L 269.06445 593.18112 L 269.41992 589.70456 C 272.16669 562.9086 253.98752 538.2377 227.4082 533.04245 C 224.02745 532.38163 220.65327 532.06369 217.32422 532.06589 z M 341.75977 532.06589 C 318.45656 532.08129 297.33637 547.7685 291.20508 571.08932 C 284.19789 597.74178 299.13999 625.33937 325.28906 634.03854 C 346.94423 641.2428 370.20484 633.49867 383.44727 616.08542 A 3.8688381 3.8688381 0 0 0 382.71094 610.66354 A 3.8688381 3.8688381 0 0 0 377.28906 611.40182 C 366.01713 626.224 346.23937 632.8536 327.73242 626.69675 C 305.38477 619.26219 292.70095 595.8339 298.68945 573.05612 C 304.678 550.27833 327.24492 536.12018 350.35938 540.63815 C 371.90925 544.8504 386.70854 563.95848 386.1875 585.44284 L 345.7832 585.44284 A 3.8688381 3.8688381 0 0 0 341.91406 589.31198 A 3.8688381 3.8688381 0 0 0 345.7832 593.18112 L 393.5 593.18112 L 393.85742 589.70456 C 396.6042 562.90865 378.42106 538.2377 351.8418 533.04245 C 348.46097 532.38163 345.08876 532.06369 341.75977 532.06589 z M 644.19336 532.06589 C 620.89015 532.08129 599.77195 547.76845 593.64062 571.08932 C 586.6334 597.74183 601.57545 625.33936 627.72461 634.03854 C 649.45835 641.2688 672.80805 633.44271 686.02539 615.89596 A 3.8688381 3.8688381 0 0 0 685.26562 610.478 A 3.8688381 3.8688381 0 0 0 679.8457 611.23776 C 668.59505 626.17362 648.74211 632.87584 630.16797 626.69675 C 607.82027 619.26219 595.13449 595.83394 601.12305 573.05612 C 607.11155 550.27831 629.67852 536.12014 652.79297 540.63815 C 666.36121 543.29025 677.31226 551.83916 683.45508 563.17526 A 3.8688381 3.8688381 0 0 0 688.69922 564.73386 A 3.8688381 3.8688381 0 0 0 690.25781 559.48971 C 683.05293 546.1936 670.15365 536.14569 654.27734 533.04245 C 650.89658 532.38163 647.52241 532.06369 644.19336 532.06589 z M 465.35742 532.07565 C 464.51932 532.08944 463.686 532.1236 462.85547 532.17721 C 439.60074 533.67988 419.52493 550.68057 414.89453 574.34518 C 409.60269 601.39053 426.27673 627.97718 452.92773 634.98971 C 475.07862 640.81814 497.88263 631.51802 509.95312 613.16354 A 3.8688381 3.8688381 0 0 0 508.84766 607.80612 A 3.8688381 3.8688381 0 0 0 503.48828 608.91159 C 493.21377 624.535 473.82903 632.48838 454.89844 627.50729 C 432.12182 621.51421 417.96576 598.9431 422.48828 575.82956 C 427.01085 552.71599 448.63063 537.1456 471.98633 540.17917 C 485.69608 541.95989 497.1678 549.79538 504.02148 560.71628 A 3.8688381 3.8688381 0 0 0 509.35352 561.93503 A 3.8688381 3.8688381 0 0 0 510.57617 556.603 C 502.53744 543.7938 489.02237 534.59092 472.98047 532.50729 C 470.41839 532.17453 467.87173 532.03428 465.35742 532.07565 z M 790.91211 539.32761 C 792.35516 539.34756 793.81041 539.43684 795.27344 539.59909 C 808.59458 541.07638 819.88289 548.31071 826.99219 558.58151 L 826.99219 609.15573 C 816.76734 623.99273 798.23414 631.70979 779.82227 627.2319 C 756.93743 621.66619 742.36197 599.36362 746.45117 576.1694 C 750.28479 554.42483 769.26641 539.02829 790.91211 539.32761 z M 551.54102 559.89596 A 3.8688317 3.8688317 0 0 0 547.67188 563.76511 L 547.67188 632.853 A 3.8688317 3.8688317 0 0 0 551.54102 636.72018 A 3.8688317 3.8688317 0 0 0 555.41016 632.853 L 555.41016 563.76511 A 3.8688317 3.8688317 0 0 0 551.54102 559.89596 z " /><path
       id="point-of-interest-path"
       style="fill:#ff7383;fill-opacity:1;stroke:none;stroke-width:2.65997;stroke-linecap:round;stroke-linejoin:round;stroke-miterlimit:0"
       d="m 551.5412,499.20775 c -11.37096,0 -20.58868,9.21774 -20.58868,20.58868 0,11.37094 9.86579,25.81398 20.58868,32.00485 10.20063,-5.88934 20.58866,-20.63391 20.58866,-32.00485 0,-11.37094 -9.21772,-20.58868 -20.58866,-20.58868 z m 0,9.86652 c 5.92141,2.9e-4 10.72145,4.80075 10.72123,10.72216 -2.9e-4,5.92105 -4.80018,10.72094 -10.72123,10.72123 -5.92143,2.4e-4 -10.72188,-4.79981 -10.72218,-10.72123 -2.2e-4,-5.92179 4.80039,-10.72239 10.72218,-10.72216 z" /></g><metadata
     id="metadata432"><rdf:RDF><cc:Work
         rdf:about=""><dc:title>ReeciclaE</dc:title><dc:date>14 july 2023</dc:date><dc:creator><cc:Agent><dc:title>Laudivan Freire de Almeida</dc:title></cc:Agent></dc:creator><dc:rights><cc:Agent><dc:title>ReeciclaE Teams</dc:title></cc:Agent></dc:rights><dc:subject><rdf:Bag><rdf:li>recycling</rdf:li><rdf:li>etrash</rdf:li><rdf:li>social entrepreneurship</rdf:li></rdf:Bag></dc:subject></cc:Work></rdf:RDF></metadata></svg>
